<svg width="7" height="11" viewBox="0 0 7 11" fill="none" xmlns="http://www.w3.org/2000/svg">
<path d="M0 0.75H1.3125M7 0.75H5.6875M5.6875 0.75V3.9C5.6875 4.14853 5.48603 4.35 5.2375 4.35H5.11538L5.02088 4.35776C4.77953 4.37759 4.59375 4.57926 4.59375 4.82143M5.6875 0.75H1.3125M4.59375 5.25V4.82143M4.59375 5.25V5.67857M4.59375 5.25H2.625M0 9.75H1.3125M1.3125 9.75H7H5.6875V7.95V7.05V6.69688C5.6875 6.39484 5.44266 6.15 5.14062 6.15H5.06518C4.80482 6.15 4.59375 5.93893 4.59375 5.67857M1.3125 9.75V7.05V6.80625C1.3125 6.44381 1.60631 6.15 1.96875 6.15H2.175C2.42353 6.15 2.625 5.94853 2.625 5.7M2.625 5.7L4.59375 5.67857M2.625 5.7V5.25M2.625 4.8L4.59375 4.82143M2.625 4.8V5.25M2.625 4.8C2.59164 4.54263 2.37243 4.35 2.1129 4.35H1.75C1.50838 4.35 1.3125 4.15412 1.3125 3.9125V3.9V0.75" stroke="black" stroke-width="1.5"/>
</svg>
