<svg width="13" height="13" viewBox="0 0 13 13" fill="none" xmlns="http://www.w3.org/2000/svg">
<path d="M6.61987 0.62793C6.11687 1.22775 5.78324 1.97419 5.69214 2.79395C5.04507 3.07577 4.5686 3.68551 4.48608 4.42676L4.34937 5.6543C4.26351 6.42694 4.01203 7.17226 3.61206 7.83887L3.39136 8.20801H9.60815L9.38745 7.83887C9.2791 7.65827 9.18265 7.47141 9.09644 7.28027C9.3092 7.31452 9.52734 7.33397 9.74976 7.33398C10.2781 7.33397 10.7824 7.23156 11.2458 7.04883L11.4148 7.33203C12.1743 8.59783 11.2629 10.2077 9.78687 10.208H3.21265C1.73676 10.2075 0.825388 8.59775 1.58472 7.33203L1.89722 6.80957C2.14913 6.38964 2.30798 5.92029 2.36206 5.43359L2.49878 4.20605C2.72545 2.16743 4.44856 0.625117 6.49976 0.625C6.53986 0.625 6.58003 0.626759 6.61987 0.62793ZM8.99097 1.48926C9.81141 2.13613 10.3775 3.09739 10.5007 4.20605L10.5857 4.97168C10.3327 5.09477 10.05 5.16698 9.74976 5.16699C9.29422 5.16692 8.87639 5.00677 8.54761 4.74121L8.51343 4.42676C8.45574 3.90864 8.20575 3.45468 7.8396 3.13184C7.88452 2.39392 8.34427 1.76834 8.99097 1.48926Z" fill="#FF2323"/>
<path d="M4.93037 9.56837C5.02295 10.0867 5.22697 10.5447 5.51076 10.8713C5.79456 11.1979 6.14228 11.375 6.5 11.375C6.85772 11.375 7.20544 11.1979 7.48924 10.8713C7.77303 10.5447 7.97704 10.0867 8.06963 9.56837" stroke="#FF2323" stroke-width="2" stroke-linecap="round"/>
<circle cx="9.75008" cy="3.25008" r="1.58333" fill="#FF2323" stroke="#FF2323"/>
</svg>
