<svg width="12" height="12" viewBox="0 0 12 12" fill="none" xmlns="http://www.w3.org/2000/svg">
<path d="M2 10H1.5V10.5H2V10ZM4.85355 7.85355C5.04882 7.65829 5.04882 7.34171 4.85355 7.14645C4.65829 6.95118 4.34171 6.95118 4.14645 7.14645L4.5 7.5L4.85355 7.85355ZM2 7H1.5V10H2H2.5V7H2ZM2 10V10.5H5V10V9.5H2V10ZM2 10L2.35355 10.3536L4.85355 7.85355L4.5 7.5L4.14645 7.14645L1.64645 9.64645L2 10Z" fill="#FFFFFF"/>
<path d="M10 2H10.5V1.5H10V2ZM7.14645 4.14645C6.95118 4.34171 6.95118 4.65829 7.14645 4.85355C7.34171 5.04882 7.65829 5.04882 7.85355 4.85355L7.5 4.5L7.14645 4.14645ZM10 5H10.5V2H10H9.5V5H10ZM10 2V1.5H7V2V2.5H10V2ZM10 2L9.64645 1.64645L7.14645 4.14645L7.5 4.5L7.85355 4.85355L10.3536 2.35355L10 2Z" fill="#FFFFFF"/>
</svg>
