<svg width="12" height="12" viewBox="0 0 12 12" fill="none" xmlns="http://www.w3.org/2000/svg">
<path d="M7.83333 4.16667H7.33333V4.66667H7.83333V4.16667ZM11.8536 0.853553C12.0488 0.658291 12.0488 0.341709 11.8536 0.146447C11.6583 -0.0488155 11.3417 -0.0488155 11.1464 0.146447L11.5 0.5L11.8536 0.853553ZM4.16667 7.83333H4.66667V7.33333H4.16667V7.83333ZM0.146447 11.1464C-0.0488155 11.3417 -0.0488155 11.6583 0.146447 11.8536C0.341709 12.0488 0.658291 12.0488 0.853553 11.8536L0.5 11.5L0.146447 11.1464ZM7.83333 1.11111H7.33333V4.16667H7.83333H8.33333V1.11111H7.83333ZM7.83333 4.16667V4.66667H10.8889V4.16667V3.66667H7.83333V4.16667ZM7.83333 4.16667L8.18689 4.52022L11.8536 0.853553L11.5 0.5L11.1464 0.146447L7.47978 3.81311L7.83333 4.16667ZM4.16667 10.8889H4.66667V7.83333H4.16667H3.66667V10.8889H4.16667ZM4.16667 7.83333V7.33333H1.11111V7.83333V8.33333H4.16667V7.83333ZM4.16667 7.83333L3.81311 7.47978L0.146447 11.1464L0.5 11.5L0.853553 11.8536L4.52022 8.18689L4.16667 7.83333Z" fill="#FFFFFF"/>
</svg>
