<?xml version="1.0" encoding="utf-8"?>
<!-- Generator: Adobe Illustrator 28.3.0, SVG Export Plug-In . SVG Version: 6.00 Build 0)  -->
<svg version="1.1" xmlns="http://www.w3.org/2000/svg" xmlns:xlink="http://www.w3.org/1999/xlink" x="0px" y="0px"
	 viewBox="0 0 144 195" style="enable-background:new 0 0 144 195;" xml:space="preserve">
<g id="Layer_1" shape-rendering="geometricPrecision">
	<path d="M58.1,5.2c4.4,20.9,8.7,42.3,10.7,63.6c1,9.7,2.4,19.6,2.3,29.4c2,14.4,0.8,31.9,1.1,45.9c0.1,2.9-1.1,6.3-1.1,9.9
		c0.2,6.3-0.8,12-1.4,18.4c-0.5,4.2-1.1,8.4-1.6,12.6c-0.1,0.8-0.1,1.3,0.1,1.3c1.2-0.8,2.2-4.5,3-6.1c7.6-18.1,11.9-36.8,13.6-56.1
		c0-9.3,0-20.1,0-29.4C82.6,63.4,72.9,32.7,58.1,5.2L58.1,5.2z M134,17.5c-5.5,2.2-11.2,5.7-14.7,10.6c-3.3,4.3-6.3,8.5-8.5,13.4
		c-1.5,3.2-3.3,6.2-4.4,9.6c-2.8,6.1-4.3,12.6-6.3,19c-0.4,2.9-1.1,5.7-1.8,8.4c-0.8,2.7-1,5.5-1.8,8.2c-0.1,2.4-0.6,4.8-1.2,7.2
		c-0.2,1.6,0,3.6-0.2,5.2c-0.3,1.7-1,3.1-1,4.9c0,2.8,0,6.7,0,9.1c0,0,0-0.1,0-0.4c0-0.5,0.1-0.7,0.2-1.1c2.4-8.7,5.2-17.4,8.2-26
		c2.5-5.9,4.8-11.9,7.2-17.9c1.4-2.7,2.5-5.4,3.6-8.3c2-3.9,4.2-8.1,5.6-12.3c3.4-6.8,6.8-13.6,10.2-20.4c1.8-2.8,3.6-5.8,5-8.8
		C134.1,17.8,134.1,17.6,134,17.5L134,17.5z M27,48.8c1.2,3.8,3.4,8.3,5,12.1c2,5.2,4.1,10.5,5.8,15.8c6.3,18.1,11.4,36.6,14.5,55.6
		c0.3,2.1,0.7,5.3,1.7,1c3.1-17.9-3.4-38.1-10.6-54.4c-4.8-9.4-9-19.1-14.7-28C28.3,50.3,27.1,48.5,27,48.8L27,48.8z M6,87.4
		c0.9,1.7,3.3,4.4,4.6,6.1c3,4,5.9,8.3,8.9,12.5c6.4,9.4,12.3,19.4,17.4,29.7c5.6,12.6,11.3,25.4,13.2,39.2c0.8,4.2,1.4,8.5,1.4,13
		c0,1.2,0.1,1.9,0.2,1.8c1.1-3,1.9-8,2-11.5c0-3.7,0.1-7.8-0.1-11.7c-0.4-5.2-1.7-10.1-3-15.2c-3.9-14.8-12.1-28.1-21.4-40.1
		c-4.1-4.6-7.8-9.2-12.1-13.8c-3.2-3-6.8-5.6-9.8-8.8C6.6,87.7,6,87.3,6,87.4L6,87.4z M119.6,104.1c-0.1-0.1-0.2,0-0.7,0.2
		c0,0-0.1,0.1-0.2,0.1c-0.7,0.4-1.8,1.2-2.3,1.7c-2.1,2.2-3.4,3-6.8,7c-2.8,4.2-5.9,8.5-7.9,13.1c-1.6,4.2-2.9,8.6-4.4,12.9
		c-1,2.9-1,5.7-2,8.7c-0.2,1.4-0.6,2.9-0.9,4.2c-1.2,11.3-1.8,20.4-0.3,28c0.3,1.3,0,2.9,0,2.9c0,0,0-0.4,0.1-1.1
		c0-0.2,0.1-0.5,0.2-0.7c3.8-15.9,8.7-31.6,14.3-47c1.9-3.8,2.7-7.7,4.3-11.8c1.3-2.7,2.3-5.7,3.2-8.4c1.2-2.8,2.4-5.7,3.3-8.6
		C119.6,104.9,119.8,104.5,119.6,104.1L119.6,104.1z M106.5,165.4"/>
</g>
<g id="Layer_2">
	<path d="M108.8,189c-0.4,0.2-0.4-0.3-0.4-0.6c-0.2-4.9-0.2-8.9,0.4-12.8c0.8-5.7,5.9-27.7,20.6-35.4
		C129.4,145.3,121.3,173.5,108.8,189L108.8,189z"/>
</g>
</svg>
